<svg aria-hidden="true" style="position: absolute; width: 0; height: 0; overflow: hidden;" version="1.1" xmlns="http://www.w3.org/2000/svg" xmlns:xlink="http://www.w3.org/1999/xlink">
<defs>
<symbol id="icon-Logo" viewBox="0 0 35 32">
<path fill="#ffb627" style="fill: var(--color1, #ffb627)" d="M23.748 4.297c-2.314-0.553-4.628-1.66-6.364-3.32-1.736 1.66-4.050 2.767-6.364 3.32 0.579 4.981 2.314 8.301 6.364 11.068 4.050-2.767 6.364-6.087 6.364-11.068z"></path>
<path fill="#fbfbfb" style="fill: var(--color2, #fbfbfb)" d="M21.433 24.903l-16.2-18.262v8.854l12.728 13.835 3.471-4.427z"></path>
<path fill="#fbfbfb" style="fill: var(--color2, #fbfbfb)" d="M23.169 23.243l6.943-7.748v-8.301l-10.993 12.175 4.050 3.874z"></path>
<path fill="#fbfbfb" style="fill: var(--color2, #fbfbfb)" d="M23.748 26.010v4.981l6.364-7.194v-4.981l-6.364 7.194z"></path>
<path fill="#fbfbfb" style="fill: var(--color2, #fbfbfb)" d="M11.598 26.010l-6.364-7.194v4.981l6.364 7.194v-4.981z"></path>
</symbol>
</defs>
</svg>
