<svg aria-hidden="true" style="position: absolute; width: 0; height: 0; overflow: hidden;" version="1.1" xmlns="http://www.w3.org/2000/svg" xmlns:xlink="http://www.w3.org/1999/xlink">
<defs>
<symbol id="icon-close" viewBox="0 0 32 32">
<path stroke-linejoin="miter" stroke-linecap="butt" stroke-miterlimit="4" stroke-width="1.7778" d="M1.778 1.778l28.444 28.444"></path>
<path stroke-linejoin="miter" stroke-linecap="butt" stroke-miterlimit="4" stroke-width="1.7778" d="M1.778 30.222l28.444-28.444"></path>
</symbol>
<symbol id="icon-plus" viewBox="0 0 32 32">
<path fill="#ff868d" style="fill: var(--color2, #ff868d)" d="M25.514 13.405c0 5.254-4.259 9.513-9.514 9.513s-9.514-4.259-9.514-9.514c0-5.254 4.259-9.514 9.514-9.514s9.514 4.259 9.514 9.514z"></path>
<path fill="none" stroke="#fff" style="stroke: var(--color3, #fff)" stroke-linejoin="miter" stroke-linecap="butt" stroke-miterlimit="4" stroke-width="0.8649" d="M11.676 13.405h8.649"></path>
</symbol>
<symbol id="icon--minus" viewBox="0 0 32 32">
<path fill="#ffb627" style="fill: var(--color4, #ffb627)" d="M25.514 13.405c0 5.254-4.259 9.513-9.514 9.513s-9.514-4.259-9.514-9.514c0-5.254 4.259-9.514 9.514-9.514s9.514 4.259 9.514 9.514z"></path>
<path fill="none" stroke="#fff" style="stroke: var(--color3, #fff)" stroke-linejoin="miter" stroke-linecap="butt" stroke-miterlimit="4" stroke-width="0.8649" d="M16 9.081v8.649"></path>
<path fill="none" stroke="#fff" style="stroke: var(--color3, #fff)" stroke-linejoin="miter" stroke-linecap="butt" stroke-miterlimit="4" stroke-width="0.8649" d="M11.676 13.405h8.649"></path>
</symbol>
<symbol id="icon-date_range" viewBox="0 0 32 32">
<path fill="#734aef" style="fill: var(--color1, #734aef)" d="M12 14.667h-2.667v2.667h2.667v-2.667zM17.333 14.667h-2.667v2.667h2.667v-2.667zM22.667 14.667h-2.667v2.667h2.667v-2.667zM25.333 5.333h-1.333v-2.667h-2.667v2.667h-10.667v-2.667h-2.667v2.667h-1.333c-1.48 0-2.653 1.2-2.653 2.667l-0.013 18.667c0 1.467 1.187 2.667 2.667 2.667h18.667c1.467 0 2.667-1.2 2.667-2.667v-18.667c0-1.467-1.2-2.667-2.667-2.667zM25.333 26.667h-18.667v-14.667h18.667v14.667z"></path>
</symbol>

</defs>
</svg>
